<svg width="238" height="44" viewBox="0 0 238 44" fill="none" xmlns="http://www.w3.org/2000/svg">
<path d="M50.98 16V5.92H51.925L55.887 14.397L59.828 5.92H60.787V15.993H59.807V8.216L56.216 16H55.551L51.967 8.216V16H50.98ZM62.0515 16L65.5235 5.92H66.8885L70.3605 16H69.2895L65.9925 6.494H66.3985L63.1225 16H62.0515ZM63.5985 13.557V12.591H68.8065V13.557H63.5985ZM71.7645 16V5.92H72.7935V16H71.7645ZM75.0321 16V5.92H76.0611V15.013H80.8491V16H75.0321ZM88.082 16.21C87.312 16.21 86.6306 16.0513 86.038 15.734C85.45 15.4167 84.988 14.9687 84.652 14.39C84.316 13.8113 84.148 13.1347 84.148 12.36V5.927L85.184 5.92V12.227C85.184 12.7497 85.2726 13.2023 85.45 13.585C85.6273 13.963 85.8583 14.2757 86.143 14.523C86.4323 14.7657 86.7473 14.9453 87.088 15.062C87.4286 15.1787 87.76 15.237 88.082 15.237C88.4086 15.237 88.7423 15.1787 89.083 15.062C89.4236 14.9453 89.7363 14.7657 90.021 14.523C90.3056 14.2757 90.5366 13.963 90.714 13.585C90.8913 13.2023 90.98 12.7497 90.98 12.227V5.92H92.016V12.36C92.016 13.1347 91.848 13.8113 91.512 14.39C91.176 14.964 90.7116 15.412 90.119 15.734C89.531 16.0513 88.852 16.21 88.082 16.21ZM97.0542 16.21C96.3496 16.21 95.7149 16.0933 95.1502 15.86C94.5902 15.622 94.1259 15.286 93.7572 14.852C93.3932 14.418 93.1552 13.9023 93.0432 13.305L94.0932 13.13C94.2612 13.7833 94.6159 14.2967 95.1572 14.67C95.6986 15.0387 96.3449 15.223 97.0962 15.223C97.5909 15.223 98.0342 15.146 98.4262 14.992C98.8182 14.8333 99.1262 14.6093 99.3502 14.32C99.5742 14.0307 99.6862 13.6877 99.6862 13.291C99.6862 13.0297 99.6396 12.808 99.5462 12.626C99.4529 12.4393 99.3292 12.2853 99.1752 12.164C99.0212 12.0427 98.8532 11.9423 98.6712 11.863C98.4892 11.779 98.3119 11.7113 98.1392 11.66L95.5842 10.897C95.2762 10.8083 94.9916 10.6963 94.7302 10.561C94.4689 10.421 94.2402 10.2553 94.0442 10.064C93.8529 9.868 93.7036 9.63933 93.5962 9.378C93.4889 9.11667 93.4352 8.818 93.4352 8.482C93.4352 7.91267 93.5846 7.42033 93.8832 7.005C94.1819 6.58967 94.5902 6.27 95.1082 6.046C95.6262 5.822 96.2166 5.71233 96.8792 5.717C97.5512 5.717 98.1509 5.836 98.6782 6.074C99.2102 6.312 99.6489 6.65267 99.9942 7.096C100.34 7.53467 100.568 8.055 100.68 8.657L99.6022 8.853C99.5322 8.41433 99.3712 8.034 99.1192 7.712C98.8672 7.39 98.5452 7.14267 98.1532 6.97C97.7659 6.79267 97.3389 6.70167 96.8722 6.697C96.4196 6.697 96.0159 6.774 95.6612 6.928C95.3112 7.07733 95.0336 7.28267 94.8282 7.544C94.6229 7.80533 94.5202 8.104 94.5202 8.44C94.5202 8.78067 94.6136 9.05367 94.8002 9.259C94.9916 9.46433 95.2249 9.62533 95.5002 9.742C95.7802 9.85867 96.0509 9.95433 96.3122 10.029L98.2862 10.61C98.4916 10.666 98.7319 10.7477 99.0072 10.855C99.2872 10.9577 99.5579 11.107 99.8192 11.303C100.085 11.4943 100.305 11.7463 100.477 12.059C100.65 12.3717 100.736 12.7683 100.736 13.249C100.736 13.7157 100.643 14.1333 100.456 14.502C100.274 14.8707 100.015 15.181 99.6792 15.433C99.3479 15.685 98.9582 15.8763 98.5102 16.007C98.0669 16.1423 97.5816 16.21 97.0542 16.21ZM105.544 14.88V13.683H106.741V14.88H105.544ZM105.551 10.757V9.56H106.748V10.757H105.551Z" fill="#141414"/>
<path d="M51.2 27.3625V26.125H52.3025V27.3625H51.2ZM51.2 37V28.9H52.3025V37H51.2ZM61.601 37V32.8675C61.601 32.4175 61.5585 32.005 61.4735 31.63C61.3885 31.25 61.251 30.92 61.061 30.64C60.876 30.355 60.6335 30.135 60.3335 29.98C60.0385 29.825 59.6785 29.7475 59.2535 29.7475C58.8635 29.7475 58.5185 29.815 58.2185 29.95C57.9235 30.085 57.6735 30.28 57.4685 30.535C57.2685 30.785 57.116 31.09 57.011 31.45C56.906 31.81 56.8535 32.22 56.8535 32.68L56.0735 32.5075C56.0735 31.6775 56.2185 30.98 56.5085 30.415C56.7985 29.85 57.1985 29.4225 57.7085 29.1325C58.2185 28.8425 58.8035 28.6975 59.4635 28.6975C59.9485 28.6975 60.371 28.7725 60.731 28.9225C61.096 29.0725 61.4035 29.275 61.6535 29.53C61.9085 29.785 62.1135 30.0775 62.2685 30.4075C62.4235 30.7325 62.536 31.08 62.606 31.45C62.676 31.815 62.711 32.18 62.711 32.545V37H61.601ZM55.7435 37V28.9H56.741V30.895H56.8535V37H55.7435ZM66.6597 37V28.3C66.6597 28.09 66.6697 27.8825 66.6897 27.6775C66.7147 27.4725 66.7622 27.2775 66.8322 27.0925C66.9022 26.9025 67.0122 26.7275 67.1622 26.5675C67.3272 26.3875 67.5072 26.2575 67.7022 26.1775C67.8972 26.0925 68.0997 26.0375 68.3097 26.0125C68.5247 25.9875 68.7347 25.975 68.9397 25.975H69.9747V26.905H69.0147C68.5947 26.905 68.2797 27.0075 68.0697 27.2125C67.8647 27.4175 67.7622 27.74 67.7622 28.18V37H66.6597ZM65.2572 29.845V28.9H69.9747V29.845H65.2572ZM75.4641 37.225C74.6591 37.225 73.9716 37.0425 73.4016 36.6775C72.8316 36.3125 72.3941 35.8075 72.0891 35.1625C71.7841 34.5175 71.6316 33.7775 71.6316 32.9425C71.6316 32.0925 71.7866 31.3475 72.0966 30.7075C72.4066 30.0675 72.8466 29.57 73.4166 29.215C73.9916 28.855 74.6741 28.675 75.4641 28.675C76.2741 28.675 76.9641 28.8575 77.5341 29.2225C78.1091 29.5825 78.5466 30.085 78.8466 30.73C79.1516 31.37 79.3041 32.1075 79.3041 32.9425C79.3041 33.7925 79.1516 34.54 78.8466 35.185C78.5416 35.825 78.1016 36.325 77.5266 36.685C76.9516 37.045 76.2641 37.225 75.4641 37.225ZM75.4641 36.1675C76.3641 36.1675 77.0341 35.87 77.4741 35.275C77.9141 34.675 78.1341 33.8975 78.1341 32.9425C78.1341 31.9625 77.9116 31.1825 77.4666 30.6025C77.0266 30.0225 76.3591 29.7325 75.4641 29.7325C74.8591 29.7325 74.3591 29.87 73.9641 30.145C73.5741 30.415 73.2816 30.7925 73.0866 31.2775C72.8966 31.7575 72.8016 32.3125 72.8016 32.9425C72.8016 33.9175 73.0266 34.7 73.4766 35.29C73.9266 35.875 74.5891 36.1675 75.4641 36.1675ZM87.9111 38.575C87.1111 38.575 86.3711 38.435 85.6911 38.155C85.0111 37.88 84.4186 37.495 83.9136 37C83.4086 36.5 83.0136 35.9125 82.7286 35.2375C82.4486 34.5625 82.3086 33.8275 82.3086 33.0325C82.3086 32.1875 82.4461 31.4175 82.7211 30.7225C82.9961 30.0225 83.3836 29.42 83.8836 28.915C84.3886 28.405 84.9861 28.0125 85.6761 27.7375C86.3661 27.4625 87.1236 27.325 87.9486 27.325C88.8936 27.325 89.7186 27.4775 90.4236 27.7825C91.1336 28.0825 91.7186 28.4925 92.1786 29.0125C92.6386 29.5275 92.9736 30.1075 93.1836 30.7525C93.3986 31.3975 93.4886 32.065 93.4536 32.755C93.4036 33.7 93.1786 34.4125 92.7786 34.8925C92.3836 35.3725 91.8311 35.6125 91.1211 35.6125C90.6611 35.6125 90.2611 35.505 89.9211 35.29C89.5811 35.075 89.3536 34.7725 89.2386 34.3825L89.5986 34.42C89.4236 34.775 89.1611 35.0325 88.8111 35.1925C88.4661 35.3525 88.1061 35.4325 87.7311 35.4325C87.2761 35.4325 86.8761 35.335 86.5311 35.14C86.1911 34.94 85.9236 34.665 85.7286 34.315C85.5386 33.965 85.4436 33.56 85.4436 33.1C85.4436 32.62 85.5436 32.205 85.7436 31.855C85.9436 31.505 86.2186 31.235 86.5686 31.045C86.9186 30.855 87.3136 30.76 87.7536 30.76C88.0786 30.76 88.4136 30.8275 88.7586 30.9625C89.1086 31.0975 89.3761 31.3175 89.5611 31.6225L89.2686 31.9525V30.97H90.0636L90.0561 33.4075C90.0561 33.7775 90.1411 34.08 90.3111 34.315C90.4861 34.545 90.7736 34.66 91.1736 34.66C91.4436 34.66 91.6686 34.585 91.8486 34.435C92.0336 34.285 92.1761 34.075 92.2761 33.805C92.3761 33.53 92.4336 33.2075 92.4486 32.8375C92.4786 32.0775 92.3811 31.4125 92.1561 30.8425C91.9311 30.2725 91.6111 29.7975 91.1961 29.4175C90.7811 29.0325 90.2986 28.745 89.7486 28.555C89.2036 28.365 88.6211 28.27 88.0011 28.27C87.2511 28.27 86.5836 28.395 85.9986 28.645C85.4186 28.895 84.9261 29.24 84.5211 29.68C84.1211 30.12 83.8186 30.6275 83.6136 31.2025C83.4086 31.7725 83.3111 32.38 83.3211 33.025C83.3261 33.69 83.4461 34.305 83.6811 34.87C83.9211 35.43 84.2511 35.9175 84.6711 36.3325C85.0911 36.7425 85.5811 37.06 86.1411 37.285C86.7011 37.515 87.3086 37.63 87.9636 37.63C88.3886 37.63 88.8136 37.575 89.2386 37.465C89.6686 37.355 90.0511 37.2025 90.3861 37.0075L90.7386 37.8475C90.3036 38.0925 89.8461 38.275 89.3661 38.395C88.8861 38.515 88.4011 38.575 87.9111 38.575ZM87.7911 34.4725C88.1811 34.4725 88.4986 34.36 88.7436 34.135C88.9936 33.91 89.1186 33.5625 89.1186 33.0925C89.1186 32.6325 88.9986 32.285 88.7586 32.05C88.5236 31.815 88.2086 31.6975 87.8136 31.6975C87.3636 31.6975 87.0186 31.82 86.7786 32.065C86.5436 32.31 86.4261 32.6525 86.4261 33.0925C86.4261 33.5375 86.5486 33.88 86.7936 34.12C87.0386 34.355 87.3711 34.4725 87.7911 34.4725ZM100.546 37.225C99.8009 37.225 99.1709 37.0375 98.6559 36.6625C98.1409 36.2825 97.7509 35.77 97.4859 35.125C97.2209 34.475 97.0884 33.7475 97.0884 32.9425C97.0884 32.1225 97.2209 31.3925 97.4859 30.7525C97.7559 30.1075 98.1509 29.6 98.6709 29.23C99.1909 28.86 99.8309 28.675 100.591 28.675C101.331 28.675 101.966 28.8625 102.496 29.2375C103.026 29.6125 103.431 30.1225 103.711 30.7675C103.996 31.4125 104.138 32.1375 104.138 32.9425C104.138 33.7525 103.996 34.48 103.711 35.125C103.426 35.77 103.016 36.2825 102.481 36.6625C101.946 37.0375 101.301 37.225 100.546 37.225ZM96.9009 37V26.2H98.0109V30.9025H97.8909V37H96.9009ZM100.433 36.1975C100.998 36.1975 101.468 36.055 101.843 35.77C102.218 35.485 102.498 35.0975 102.683 34.6075C102.873 34.1125 102.968 33.5575 102.968 32.9425C102.968 32.3325 102.876 31.7825 102.691 31.2925C102.506 30.8025 102.223 30.415 101.843 30.13C101.468 29.845 100.991 29.7025 100.411 29.7025C99.8459 29.7025 99.3759 29.84 99.0009 30.115C98.6309 30.39 98.3534 30.7725 98.1684 31.2625C97.9834 31.7475 97.8909 32.3075 97.8909 32.9425C97.8909 33.5675 97.9834 34.1275 98.1684 34.6225C98.3534 35.1125 98.6334 35.4975 99.0084 35.7775C99.3834 36.0575 99.8584 36.1975 100.433 36.1975ZM110.413 37.225C109.623 37.225 108.938 37.05 108.358 36.7C107.783 36.35 107.335 35.8575 107.015 35.2225C106.695 34.5875 106.535 33.8425 106.535 32.9875C106.535 32.1025 106.693 31.3375 107.008 30.6925C107.323 30.0475 107.765 29.55 108.335 29.2C108.91 28.85 109.588 28.675 110.368 28.675C111.168 28.675 111.85 28.86 112.415 29.23C112.98 29.595 113.408 30.12 113.698 30.805C113.988 31.49 114.12 32.3075 114.095 33.2575H112.97V32.8675C112.95 31.8175 112.723 31.025 112.288 30.49C111.858 29.955 111.228 29.6875 110.398 29.6875C109.528 29.6875 108.86 29.97 108.395 30.535C107.935 31.1 107.705 31.905 107.705 32.95C107.705 33.97 107.935 34.7625 108.395 35.3275C108.86 35.8875 109.518 36.1675 110.368 36.1675C110.948 36.1675 111.453 36.035 111.883 35.77C112.318 35.5 112.66 35.1125 112.91 34.6075L113.938 35.005C113.618 35.71 113.145 36.2575 112.52 36.6475C111.9 37.0325 111.198 37.225 110.413 37.225ZM107.315 33.2575V32.335H113.503V33.2575H107.315ZM119.131 37.225C118.521 37.225 118.008 37.115 117.593 36.895C117.183 36.675 116.876 36.3825 116.671 36.0175C116.466 35.6525 116.363 35.255 116.363 34.825C116.363 34.385 116.451 34.01 116.626 33.7C116.806 33.385 117.048 33.1275 117.353 32.9275C117.663 32.7275 118.021 32.575 118.426 32.47C118.836 32.37 119.288 32.2825 119.783 32.2075C120.283 32.1275 120.771 32.06 121.246 32.005C121.726 31.945 122.146 31.8875 122.506 31.8325L122.116 32.0725C122.131 31.2725 121.976 30.68 121.651 30.295C121.326 29.91 120.761 29.7175 119.956 29.7175C119.401 29.7175 118.931 29.8425 118.546 30.0925C118.166 30.3425 117.898 30.7375 117.743 31.2775L116.671 30.9625C116.856 30.2375 117.228 29.675 117.788 29.275C118.348 28.875 119.076 28.675 119.971 28.675C120.711 28.675 121.338 28.815 121.853 29.095C122.373 29.37 122.741 29.77 122.956 30.295C123.056 30.53 123.121 30.7925 123.151 31.0825C123.181 31.3725 123.196 31.6675 123.196 31.9675V37H122.213V34.9675L122.498 35.0875C122.223 35.7825 121.796 36.3125 121.216 36.6775C120.636 37.0425 119.941 37.225 119.131 37.225ZM119.258 36.2725C119.773 36.2725 120.223 36.18 120.608 35.995C120.993 35.81 121.303 35.5575 121.538 35.2375C121.773 34.9125 121.926 34.5475 121.996 34.1425C122.056 33.8825 122.088 33.5975 122.093 33.2875C122.098 32.9725 122.101 32.7375 122.101 32.5825L122.521 32.8C122.146 32.85 121.738 32.9 121.298 32.95C120.863 33 120.433 33.0575 120.008 33.1225C119.588 33.1875 119.208 33.265 118.868 33.355C118.638 33.42 118.416 33.5125 118.201 33.6325C117.986 33.7475 117.808 33.9025 117.668 34.0975C117.533 34.2925 117.466 34.535 117.466 34.825C117.466 35.06 117.523 35.2875 117.638 35.5075C117.758 35.7275 117.948 35.91 118.208 36.055C118.473 36.2 118.823 36.2725 119.258 36.2725ZM129.446 37.2025C128.961 37.2025 128.536 37.1275 128.171 36.9775C127.811 36.8275 127.503 36.625 127.248 36.37C126.998 36.115 126.796 35.825 126.641 35.5C126.486 35.17 126.373 34.8225 126.303 34.4575C126.233 34.0875 126.198 33.72 126.198 33.355V28.9H127.308V33.0325C127.308 33.4775 127.351 33.89 127.436 34.27C127.521 34.65 127.656 34.9825 127.841 35.2675C128.031 35.5475 128.273 35.765 128.568 35.92C128.868 36.075 129.231 36.1525 129.656 36.1525C130.046 36.1525 130.388 36.085 130.683 35.95C130.983 35.815 131.233 35.6225 131.433 35.3725C131.638 35.1175 131.793 34.81 131.898 34.45C132.003 34.085 132.056 33.675 132.056 33.22L132.836 33.3925C132.836 34.2225 132.691 34.92 132.401 35.485C132.111 36.05 131.711 36.4775 131.201 36.7675C130.691 37.0575 130.106 37.2025 129.446 37.2025ZM132.168 37V35.005H132.056V28.9H133.158V37H132.168ZM140.864 37C140.409 37.095 139.959 37.1325 139.514 37.1125C139.074 37.0925 138.679 36.9975 138.329 36.8275C137.984 36.6575 137.722 36.3925 137.542 36.0325C137.397 35.7325 137.317 35.43 137.302 35.125C137.292 34.815 137.287 34.4625 137.287 34.0675V26.65H138.382V34.0225C138.382 34.3625 138.384 34.6475 138.389 34.8775C138.399 35.1025 138.452 35.3025 138.547 35.4775C138.727 35.8125 139.012 36.0125 139.402 36.0775C139.797 36.1425 140.284 36.1275 140.864 36.0325V37ZM135.554 29.845V28.9H140.864V29.845H135.554ZM144.596 40.6L146.163 36.3475L146.186 37.6075L142.638 28.9H143.808L146.718 36.1825H146.238L148.923 28.9H150.048L145.698 40.6H144.596ZM158.401 37V32.8675C158.401 32.4175 158.358 32.005 158.273 31.63C158.188 31.25 158.051 30.92 157.861 30.64C157.676 30.355 157.433 30.135 157.133 29.98C156.838 29.825 156.478 29.7475 156.053 29.7475C155.663 29.7475 155.318 29.815 155.018 29.95C154.723 30.085 154.473 30.28 154.268 30.535C154.068 30.785 153.916 31.09 153.811 31.45C153.706 31.81 153.653 32.22 153.653 32.68L152.873 32.5075C152.873 31.6775 153.018 30.98 153.308 30.415C153.598 29.85 153.998 29.4225 154.508 29.1325C155.018 28.8425 155.603 28.6975 156.263 28.6975C156.748 28.6975 157.171 28.7725 157.531 28.9225C157.896 29.0725 158.203 29.275 158.453 29.53C158.708 29.785 158.913 30.0775 159.068 30.4075C159.223 30.7325 159.336 31.08 159.406 31.45C159.476 31.815 159.511 32.18 159.511 32.545V37H158.401ZM152.543 37V28.9H153.541V30.895H153.653V37H152.543ZM166.041 37.225C165.251 37.225 164.566 37.05 163.986 36.7C163.411 36.35 162.963 35.8575 162.643 35.2225C162.323 34.5875 162.163 33.8425 162.163 32.9875C162.163 32.1025 162.321 31.3375 162.636 30.6925C162.951 30.0475 163.393 29.55 163.963 29.2C164.538 28.85 165.216 28.675 165.996 28.675C166.796 28.675 167.478 28.86 168.043 29.23C168.608 29.595 169.036 30.12 169.326 30.805C169.616 31.49 169.748 32.3075 169.723 33.2575H168.598V32.8675C168.578 31.8175 168.351 31.025 167.916 30.49C167.486 29.955 166.856 29.6875 166.026 29.6875C165.156 29.6875 164.488 29.97 164.023 30.535C163.563 31.1 163.333 31.905 163.333 32.95C163.333 33.97 163.563 34.7625 164.023 35.3275C164.488 35.8875 165.146 36.1675 165.996 36.1675C166.576 36.1675 167.081 36.035 167.511 35.77C167.946 35.5 168.288 35.1125 168.538 34.6075L169.566 35.005C169.246 35.71 168.773 36.2575 168.148 36.6475C167.528 37.0325 166.826 37.225 166.041 37.225ZM162.943 33.2575V32.335H169.131V33.2575H162.943ZM175.61 37.2175C174.66 37.2175 173.877 37.0125 173.262 36.6025C172.652 36.1925 172.277 35.6225 172.137 34.8925L173.262 34.705C173.382 35.165 173.655 35.5325 174.08 35.8075C174.51 36.0775 175.04 36.2125 175.67 36.2125C176.285 36.2125 176.77 36.085 177.125 35.83C177.48 35.57 177.657 35.2175 177.657 34.7725C177.657 34.5225 177.6 34.32 177.485 34.165C177.375 34.005 177.147 33.8575 176.802 33.7225C176.457 33.5875 175.942 33.4275 175.257 33.2425C174.522 33.0425 173.947 32.8425 173.532 32.6425C173.117 32.4425 172.822 32.2125 172.647 31.9525C172.472 31.6875 172.385 31.365 172.385 30.985C172.385 30.525 172.515 30.1225 172.775 29.7775C173.035 29.4275 173.395 29.1575 173.855 28.9675C174.315 28.7725 174.85 28.675 175.46 28.675C176.07 28.675 176.615 28.775 177.095 28.975C177.58 29.17 177.97 29.445 178.265 29.8C178.56 30.155 178.735 30.5675 178.79 31.0375L177.665 31.24C177.59 30.765 177.352 30.39 176.952 30.115C176.557 29.835 176.055 29.69 175.445 29.68C174.87 29.665 174.402 29.775 174.042 30.01C173.682 30.24 173.502 30.5475 173.502 30.9325C173.502 31.1475 173.567 31.3325 173.697 31.4875C173.827 31.6375 174.062 31.78 174.402 31.915C174.747 32.05 175.237 32.1975 175.872 32.3575C176.617 32.5475 177.202 32.7475 177.627 32.9575C178.052 33.1675 178.355 33.415 178.535 33.7C178.715 33.985 178.805 34.3375 178.805 34.7575C178.805 35.5225 178.52 36.125 177.95 36.565C177.385 37 176.605 37.2175 175.61 37.2175ZM184.691 37.2175C183.741 37.2175 182.958 37.0125 182.343 36.6025C181.733 36.1925 181.358 35.6225 181.218 34.8925L182.343 34.705C182.463 35.165 182.736 35.5325 183.161 35.8075C183.591 36.0775 184.121 36.2125 184.751 36.2125C185.366 36.2125 185.851 36.085 186.206 35.83C186.561 35.57 186.738 35.2175 186.738 34.7725C186.738 34.5225 186.681 34.32 186.566 34.165C186.456 34.005 186.228 33.8575 185.883 33.7225C185.538 33.5875 185.023 33.4275 184.338 33.2425C183.603 33.0425 183.028 32.8425 182.613 32.6425C182.198 32.4425 181.903 32.2125 181.728 31.9525C181.553 31.6875 181.466 31.365 181.466 30.985C181.466 30.525 181.596 30.1225 181.856 29.7775C182.116 29.4275 182.476 29.1575 182.936 28.9675C183.396 28.7725 183.931 28.675 184.541 28.675C185.151 28.675 185.696 28.775 186.176 28.975C186.661 29.17 187.051 29.445 187.346 29.8C187.641 30.155 187.816 30.5675 187.871 31.0375L186.746 31.24C186.671 30.765 186.433 30.39 186.033 30.115C185.638 29.835 185.136 29.69 184.526 29.68C183.951 29.665 183.483 29.775 183.123 30.01C182.763 30.24 182.583 30.5475 182.583 30.9325C182.583 31.1475 182.648 31.3325 182.778 31.4875C182.908 31.6375 183.143 31.78 183.483 31.915C183.828 32.05 184.318 32.1975 184.953 32.3575C185.698 32.5475 186.283 32.7475 186.708 32.9575C187.133 33.1675 187.436 33.415 187.616 33.7C187.796 33.985 187.886 34.3375 187.886 34.7575C187.886 35.5225 187.601 36.125 187.031 36.565C186.466 37 185.686 37.2175 184.691 37.2175ZM190.959 37V35.7175H192.242V37H190.959ZM199.118 37.225C198.303 37.225 197.613 37.0425 197.048 36.6775C196.483 36.3125 196.053 35.81 195.758 35.17C195.468 34.525 195.318 33.785 195.308 32.95C195.318 32.1 195.473 31.355 195.773 30.715C196.073 30.07 196.505 29.57 197.07 29.215C197.635 28.855 198.32 28.675 199.125 28.675C199.945 28.675 200.658 28.875 201.263 29.275C201.873 29.675 202.29 30.2225 202.515 30.9175L201.435 31.2625C201.245 30.7775 200.943 30.4025 200.528 30.1375C200.118 29.8675 199.648 29.7325 199.118 29.7325C198.523 29.7325 198.03 29.87 197.64 30.145C197.25 30.415 196.96 30.7925 196.77 31.2775C196.58 31.7625 196.483 32.32 196.478 32.95C196.488 33.92 196.713 34.7 197.153 35.29C197.593 35.875 198.248 36.1675 199.118 36.1675C199.668 36.1675 200.135 36.0425 200.52 35.7925C200.91 35.5375 201.205 35.1675 201.405 34.6825L202.515 35.0125C202.215 35.7325 201.775 36.2825 201.195 36.6625C200.615 37.0375 199.923 37.225 199.118 37.225ZM208.426 37.225C207.621 37.225 206.934 37.0425 206.364 36.6775C205.794 36.3125 205.356 35.8075 205.051 35.1625C204.746 34.5175 204.594 33.7775 204.594 32.9425C204.594 32.0925 204.749 31.3475 205.059 30.7075C205.369 30.0675 205.809 29.57 206.379 29.215C206.954 28.855 207.636 28.675 208.426 28.675C209.236 28.675 209.926 28.8575 210.496 29.2225C211.071 29.5825 211.509 30.085 211.809 30.73C212.114 31.37 212.266 32.1075 212.266 32.9425C212.266 33.7925 212.114 34.54 211.809 35.185C211.504 35.825 211.064 36.325 210.489 36.685C209.914 37.045 209.226 37.225 208.426 37.225ZM208.426 36.1675C209.326 36.1675 209.996 35.87 210.436 35.275C210.876 34.675 211.096 33.8975 211.096 32.9425C211.096 31.9625 210.874 31.1825 210.429 30.6025C209.989 30.0225 209.321 29.7325 208.426 29.7325C207.821 29.7325 207.321 29.87 206.926 30.145C206.536 30.415 206.244 30.7925 206.049 31.2775C205.859 31.7575 205.764 32.3125 205.764 32.9425C205.764 33.9175 205.989 34.7 206.439 35.29C206.889 35.875 207.551 36.1675 208.426 36.1675ZM224.781 37L224.788 31.6825C224.788 31.0575 224.613 30.5675 224.263 30.2125C223.918 29.8525 223.478 29.6725 222.943 29.6725C222.638 29.6725 222.341 29.7425 222.051 29.8825C221.761 30.0225 221.521 30.2475 221.331 30.5575C221.146 30.8675 221.053 31.2725 221.053 31.7725L220.401 31.585C220.386 31.005 220.498 30.4975 220.738 30.0625C220.983 29.6275 221.318 29.29 221.743 29.05C222.173 28.805 222.658 28.6825 223.198 28.6825C224.013 28.6825 224.666 28.935 225.156 29.44C225.646 29.94 225.891 30.6175 225.891 31.4725L225.883 37H224.781ZM215.113 37V28.9H216.103V30.895H216.223V37H215.113ZM219.958 37L219.966 31.7575C219.966 31.1125 219.793 30.605 219.448 30.235C219.108 29.86 218.658 29.6725 218.098 29.6725C217.538 29.6725 217.086 29.865 216.741 30.25C216.396 30.63 216.223 31.1375 216.223 31.7725L215.563 31.4125C215.563 30.8925 215.686 30.4275 215.931 30.0175C216.176 29.6025 216.511 29.2775 216.936 29.0425C217.361 28.8025 217.843 28.6825 218.383 28.6825C218.898 28.6825 219.356 28.7925 219.756 29.0125C220.161 29.2325 220.478 29.5525 220.708 29.9725C220.938 30.3925 221.053 30.9025 221.053 31.5025L221.046 37H219.958Z" fill="#141414"/>
<g clip-path="url(#clip0_1_424)">
<path d="M27 15C28.6569 15 30 13.6569 30 12C30 10.3431 28.6569 9 27 9C25.3431 9 24 10.3431 24 12C24 13.6569 25.3431 15 27 15Z" fill="#5C8692"/>
<path d="M15 15C16.6569 15 18 13.6569 18 12C18 10.3431 16.6569 9 15 9C13.3431 9 12 10.3431 12 12C12 13.6569 13.3431 15 15 15Z" fill="#5C8692"/>
<path d="M3 15C4.65685 15 6 13.6569 6 12C6 10.3431 4.65685 9 3 9C1.34315 9 0 10.3431 0 12C0 13.6569 1.34315 15 3 15Z" fill="#5C8692"/>
</g>
<defs>
<clipPath id="clip0_1_424">
<rect width="30" height="6" fill="white" transform="translate(0 9)"/>
</clipPath>
</defs>
</svg>
