<svg width="238" height="44" viewBox="0 0 238 44" fill="none" xmlns="http://www.w3.org/2000/svg">
<g clip-path="url(#clip0_1_416)">
<path d="M27 15C28.6569 15 30 13.6569 30 12C30 10.3431 28.6569 9 27 9C25.3431 9 24 10.3431 24 12C24 13.6569 25.3431 15 27 15Z" fill="#5C8692"/>
<path d="M15 15C16.6569 15 18 13.6569 18 12C18 10.3431 16.6569 9 15 9C13.3431 9 12 10.3431 12 12C12 13.6569 13.3431 15 15 15Z" fill="#5C8692"/>
<path d="M3 15C4.65685 15 6 13.6569 6 12C6 10.3431 4.65685 9 3 9C1.34315 9 0 10.3431 0 12C0 13.6569 1.34315 15 3 15Z" fill="#5C8692"/>
</g>
<path d="M55.061 16.21C54.0577 16.21 53.2107 15.9883 52.52 15.545C51.8293 15.097 51.3067 14.4787 50.952 13.69C50.5973 12.9013 50.42 11.9913 50.42 10.96C50.42 9.92867 50.5973 9.01867 50.952 8.23C51.3067 7.44133 51.8293 6.82533 52.52 6.382C53.2107 5.934 54.0577 5.71 55.061 5.71C56.2323 5.71 57.189 6.011 57.931 6.613C58.673 7.21033 59.1817 8.013 59.457 9.021L58.407 9.294C58.1923 8.496 57.8073 7.86367 57.252 7.397C56.6967 6.93033 55.9663 6.697 55.061 6.697C54.2723 6.697 53.6167 6.87667 53.094 7.236C52.5713 7.59533 52.177 8.097 51.911 8.741C51.6497 9.38033 51.5143 10.12 51.505 10.96C51.5003 11.8 51.6287 12.5397 51.89 13.179C52.156 13.8183 52.5527 14.32 53.08 14.684C53.612 15.0433 54.2723 15.223 55.061 15.223C55.9663 15.223 56.6967 14.9897 57.252 14.523C57.8073 14.0517 58.1923 13.4193 58.407 12.626L59.457 12.899C59.1817 13.907 58.673 14.712 57.931 15.314C57.189 15.9113 56.2323 16.21 55.061 16.21ZM60.028 16L63.5 5.92H64.865L68.337 16H67.266L63.969 6.494H64.375L61.099 16H60.028ZM61.575 13.557V12.591H66.783V13.557H61.575ZM69.7411 16V5.92H70.7701V15.013H75.5581V16H69.7411ZM76.8915 16V5.92H77.9205V15.013H82.7085V16H76.8915ZM89.9413 16.21C89.1713 16.21 88.49 16.0513 87.8973 15.734C87.3093 15.4167 86.8473 14.9687 86.5113 14.39C86.1753 13.8113 86.0073 13.1347 86.0073 12.36V5.927L87.0433 5.92V12.227C87.0433 12.7497 87.132 13.2023 87.3093 13.585C87.4867 13.963 87.7177 14.2757 88.0023 14.523C88.2917 14.7657 88.6067 14.9453 88.9473 15.062C89.288 15.1787 89.6193 15.237 89.9413 15.237C90.268 15.237 90.6017 15.1787 90.9423 15.062C91.283 14.9453 91.5957 14.7657 91.8803 14.523C92.165 14.2757 92.396 13.963 92.5733 13.585C92.7507 13.2023 92.8393 12.7497 92.8393 12.227V5.92H93.8753V12.36C93.8753 13.1347 93.7073 13.8113 93.3713 14.39C93.0353 14.964 92.571 15.412 91.9783 15.734C91.3903 16.0513 90.7113 16.21 89.9413 16.21ZM98.9136 16.21C98.2089 16.21 97.5743 16.0933 97.0096 15.86C96.4496 15.622 95.9853 15.286 95.6166 14.852C95.2526 14.418 95.0146 13.9023 94.9026 13.305L95.9526 13.13C96.1206 13.7833 96.4753 14.2967 97.0166 14.67C97.5579 15.0387 98.2043 15.223 98.9556 15.223C99.4503 15.223 99.8936 15.146 100.286 14.992C100.678 14.8333 100.986 14.6093 101.21 14.32C101.434 14.0307 101.546 13.6877 101.546 13.291C101.546 13.0297 101.499 12.808 101.406 12.626C101.312 12.4393 101.189 12.2853 101.035 12.164C100.881 12.0427 100.713 11.9423 100.531 11.863C100.349 11.779 100.171 11.7113 99.9986 11.66L97.4436 10.897C97.1356 10.8083 96.8509 10.6963 96.5896 10.561C96.3283 10.421 96.0996 10.2553 95.9036 10.064C95.7123 9.868 95.5629 9.63933 95.4556 9.378C95.3483 9.11667 95.2946 8.818 95.2946 8.482C95.2946 7.91267 95.4439 7.42033 95.7426 7.005C96.0413 6.58967 96.4496 6.27 96.9676 6.046C97.4856 5.822 98.0759 5.71233 98.7386 5.717C99.4106 5.717 100.01 5.836 100.538 6.074C101.07 6.312 101.508 6.65267 101.854 7.096C102.199 7.53467 102.428 8.055 102.54 8.657L101.462 8.853C101.392 8.41433 101.231 8.034 100.979 7.712C100.727 7.39 100.405 7.14267 100.013 6.97C99.6253 6.79267 99.1983 6.70167 98.7316 6.697C98.2789 6.697 97.8753 6.774 97.5206 6.928C97.1706 7.07733 96.8929 7.28267 96.6876 7.544C96.4823 7.80533 96.3796 8.104 96.3796 8.44C96.3796 8.78067 96.4729 9.05367 96.6596 9.259C96.8509 9.46433 97.0843 9.62533 97.3596 9.742C97.6396 9.85867 97.9103 9.95433 98.1716 10.029L100.146 10.61C100.351 10.666 100.591 10.7477 100.867 10.855C101.147 10.9577 101.417 11.107 101.679 11.303C101.945 11.4943 102.164 11.7463 102.337 12.059C102.509 12.3717 102.596 12.7683 102.596 13.249C102.596 13.7157 102.502 14.1333 102.316 14.502C102.134 14.8707 101.875 15.181 101.539 15.433C101.207 15.685 100.818 15.8763 100.37 16.007C99.9263 16.1423 99.4409 16.21 98.9136 16.21ZM107.403 14.88V13.683H108.6V14.88H107.403ZM107.41 10.757V9.56H108.607V10.757H107.41Z" fill="#141414"/>
<path d="M54.9275 39.6925C54.3375 39.0175 53.83 38.2625 53.405 37.4275C52.985 36.5975 52.66 35.725 52.43 34.81C52.205 33.895 52.095 32.975 52.1 32.05C52.095 31.125 52.205 30.205 52.43 29.29C52.66 28.37 52.985 27.495 53.405 26.665C53.83 25.835 54.3375 25.0825 54.9275 24.4075L55.7375 25.0375C55.1575 25.7325 54.6725 26.4625 54.2825 27.2275C53.8925 27.9875 53.6 28.7725 53.405 29.5825C53.215 30.3925 53.1175 31.215 53.1125 32.05C53.1175 32.875 53.2175 33.6975 53.4125 34.5175C53.6125 35.3325 53.905 36.125 54.29 36.895C54.68 37.66 55.1625 38.3775 55.7375 39.0475L54.9275 39.6925ZM61.4417 35.0275V32.0725H58.4867V31.1275H61.4417V28.1725H62.3867V31.1275H65.3342V32.0725H62.3867V35.0275H61.4417ZM70.3618 37V27.43L68.3293 28.6525V27.415L70.3618 26.2H71.4793V37H70.3618ZM75.9365 39.2425L75.1265 38.5975C75.7015 37.9275 76.1815 37.21 76.5665 36.445C76.9565 35.675 77.249 34.8825 77.444 34.0675C77.644 33.2475 77.7465 32.425 77.7515 31.6C77.7465 30.765 77.6465 29.9425 77.4515 29.1325C77.2615 28.3225 76.9715 27.5375 76.5815 26.7775C76.1915 26.0125 75.7065 25.2825 75.1265 24.5875L75.9365 23.9575C76.5265 24.6325 77.0315 25.385 77.4515 26.215C77.8765 27.045 78.2015 27.92 78.4265 28.84C78.6565 29.755 78.769 30.675 78.764 31.6C78.769 32.525 78.6565 33.445 78.4265 34.36C78.2015 35.275 77.8765 36.15 77.4515 36.985C77.0315 37.815 76.5265 38.5675 75.9365 39.2425ZM87.0137 36.9925L87.0212 35.9875L91.9037 31.5775C92.3237 31.1975 92.6012 30.8375 92.7362 30.4975C92.8762 30.1525 92.9462 29.7925 92.9462 29.4175C92.9462 28.9725 92.8412 28.57 92.6312 28.21C92.4212 27.85 92.1387 27.565 91.7837 27.355C91.4287 27.14 91.0312 27.0325 90.5912 27.0325C90.1312 27.0325 89.7212 27.1425 89.3612 27.3625C89.0012 27.5825 88.7162 27.8725 88.5062 28.2325C88.3012 28.5925 88.2012 28.985 88.2062 29.41H87.0812C87.0812 28.755 87.2362 28.1675 87.5462 27.6475C87.8562 27.1275 88.2762 26.72 88.8062 26.425C89.3362 26.125 89.9362 25.975 90.6062 25.975C91.2612 25.975 91.8487 26.13 92.3687 26.44C92.8937 26.745 93.3062 27.16 93.6062 27.685C93.9112 28.205 94.0637 28.785 94.0637 29.425C94.0637 29.875 94.0087 30.2725 93.8987 30.6175C93.7937 30.9575 93.6262 31.275 93.3962 31.57C93.1712 31.86 92.8837 32.16 92.5337 32.47L88.1987 36.385L88.0262 35.935H94.0637V36.9925H87.0137ZM99.9709 37.2175C99.4359 37.2175 98.9434 37.1225 98.4934 36.9325C98.0434 36.7425 97.6559 36.4725 97.3309 36.1225C97.0059 35.7675 96.7684 35.345 96.6184 34.855L97.6684 34.54C97.8484 35.075 98.1434 35.48 98.5534 35.755C98.9684 36.03 99.4359 36.1625 99.9559 36.1525C100.436 36.1425 100.848 36.035 101.193 35.83C101.543 35.625 101.811 35.34 101.996 34.975C102.181 34.61 102.273 34.1875 102.273 33.7075C102.273 32.9725 102.058 32.3825 101.628 31.9375C101.203 31.4875 100.641 31.2625 99.9409 31.2625C99.7459 31.2625 99.5409 31.29 99.3259 31.345C99.1109 31.395 98.9109 31.4675 98.7259 31.5625L98.1709 30.685L102.371 26.8075L102.551 27.2575H97.0459V26.2H103.286V27.2725L99.6259 30.7675L99.6109 30.3325C100.361 30.2375 101.021 30.3225 101.591 30.5875C102.161 30.8525 102.606 31.2575 102.926 31.8025C103.251 32.3425 103.413 32.9775 103.413 33.7075C103.413 34.3975 103.263 35.0075 102.963 35.5375C102.668 36.0625 102.261 36.475 101.741 36.775C101.221 37.07 100.631 37.2175 99.9709 37.2175ZM109.747 37.225C109.187 37.225 108.669 37.11 108.194 36.88C107.719 36.65 107.314 36.3325 106.979 35.9275C106.644 35.5225 106.404 35.0575 106.259 34.5325L107.317 34.2475C107.412 34.6375 107.584 34.975 107.834 35.26C108.084 35.54 108.377 35.7575 108.712 35.9125C109.052 36.0675 109.407 36.145 109.777 36.145C110.257 36.145 110.687 36.03 111.067 35.8C111.452 35.565 111.757 35.255 111.982 34.87C112.207 34.485 112.319 34.0625 112.319 33.6025C112.319 33.1275 112.202 32.7 111.967 32.32C111.732 31.935 111.422 31.63 111.037 31.405C110.652 31.18 110.232 31.0675 109.777 31.0675C109.267 31.0675 108.827 31.18 108.457 31.405C108.087 31.625 107.792 31.9025 107.572 32.2375L106.567 31.8175L106.897 26.2H112.664V27.2575H107.384L107.932 26.74L107.639 31.5325L107.362 31.165C107.672 30.81 108.047 30.5325 108.487 30.3325C108.927 30.1325 109.389 30.0325 109.874 30.0325C110.539 30.0325 111.139 30.1925 111.674 30.5125C112.209 30.8275 112.634 31.255 112.949 31.795C113.264 32.335 113.422 32.9375 113.422 33.6025C113.422 34.2625 113.254 34.8675 112.919 35.4175C112.584 35.9625 112.139 36.4 111.584 36.73C111.029 37.06 110.417 37.225 109.747 37.225ZM123.912 37.225C123.237 37.225 122.64 37.09 122.12 36.82C121.605 36.55 121.2 36.1725 120.905 35.6875C120.615 35.1975 120.47 34.625 120.47 33.97C120.47 33.3 120.632 32.705 120.957 32.185C121.282 31.66 121.777 31.2625 122.442 30.9925L122.427 31.4275C121.872 31.2225 121.45 30.8875 121.16 30.4225C120.87 29.9575 120.725 29.4425 120.725 28.8775C120.725 28.2775 120.862 27.7625 121.137 27.3325C121.412 26.8975 121.787 26.5625 122.262 26.3275C122.742 26.0925 123.292 25.975 123.912 25.975C124.532 25.975 125.082 26.0925 125.562 26.3275C126.042 26.5625 126.42 26.8975 126.695 27.3325C126.97 27.7625 127.107 28.2775 127.107 28.8775C127.107 29.4425 126.967 29.955 126.687 30.415C126.412 30.875 125.99 31.2125 125.42 31.4275L125.382 30.9925C126.047 31.2575 126.545 31.6525 126.875 32.1775C127.21 32.7025 127.377 33.3 127.377 33.97C127.377 34.625 127.23 35.1975 126.935 35.6875C126.64 36.1725 126.232 36.55 125.712 36.82C125.192 37.09 124.592 37.225 123.912 37.225ZM123.912 36.1675C124.592 36.1675 125.145 35.98 125.57 35.605C125.995 35.225 126.207 34.68 126.207 33.97C126.207 33.25 125.997 32.705 125.577 32.335C125.157 31.96 124.602 31.7725 123.912 31.7725C123.222 31.7725 122.67 31.96 122.255 32.335C121.84 32.705 121.632 33.25 121.632 33.97C121.632 34.68 121.842 35.225 122.262 35.605C122.682 35.98 123.232 36.1675 123.912 36.1675ZM123.912 30.7075C124.512 30.7075 125 30.555 125.375 30.25C125.75 29.94 125.937 29.4825 125.937 28.8775C125.937 28.2725 125.75 27.82 125.375 27.52C125 27.215 124.512 27.0625 123.912 27.0625C123.312 27.0625 122.825 27.215 122.45 27.52C122.08 27.82 121.895 28.2725 121.895 28.8775C121.895 29.4825 122.08 29.94 122.45 30.25C122.825 30.555 123.312 30.7075 123.912 30.7075ZM134.076 25.9825C134.756 25.9825 135.371 26.1475 135.921 26.4775C136.476 26.8025 136.916 27.2475 137.241 27.8125C137.566 28.3725 137.728 29.0025 137.728 29.7025V33.4525C137.728 34.1725 137.566 34.8175 137.241 35.3875C136.916 35.9575 136.471 36.4075 135.906 36.7375C135.346 37.0625 134.708 37.225 133.993 37.225C133.378 37.225 132.808 37.09 132.283 36.82C131.763 36.545 131.333 36.1675 130.993 35.6875L131.833 34.99C132.063 35.345 132.368 35.63 132.748 35.845C133.133 36.06 133.548 36.1675 133.993 36.1675C134.503 36.1675 134.953 36.0475 135.343 35.8075C135.738 35.5625 136.048 35.2425 136.273 34.8475C136.503 34.4475 136.618 34.015 136.618 33.55V31.195L136.888 31.51C136.578 32.005 136.166 32.405 135.651 32.71C135.141 33.015 134.581 33.1675 133.971 33.1675C133.306 33.1675 132.703 33.0075 132.163 32.6875C131.628 32.3675 131.203 31.9375 130.888 31.3975C130.578 30.8575 130.423 30.255 130.423 29.59C130.423 28.925 130.588 28.32 130.918 27.775C131.248 27.225 131.691 26.79 132.246 26.47C132.801 26.145 133.411 25.9825 134.076 25.9825ZM134.076 27.0475C133.606 27.0475 133.178 27.1625 132.793 27.3925C132.408 27.6175 132.101 27.9225 131.871 28.3075C131.646 28.6925 131.533 29.12 131.533 29.59C131.533 30.06 131.646 30.4875 131.871 30.8725C132.096 31.2575 132.401 31.565 132.786 31.795C133.171 32.02 133.598 32.1325 134.068 32.1325C134.538 32.1325 134.966 32.02 135.351 31.795C135.741 31.565 136.048 31.2575 136.273 30.8725C136.503 30.4875 136.618 30.06 136.618 29.59C136.618 29.125 136.503 28.7 136.273 28.315C136.048 27.93 135.743 27.6225 135.358 27.3925C134.973 27.1625 134.546 27.0475 134.076 27.0475ZM144.547 37.225C143.882 37.225 143.282 37.07 142.747 36.76C142.217 36.45 141.797 36.03 141.487 35.5C141.177 34.965 141.022 34.365 141.022 33.7V29.5C141.022 28.835 141.177 28.2375 141.487 27.7075C141.797 27.1725 142.217 26.75 142.747 26.44C143.282 26.13 143.882 25.975 144.547 25.975C145.212 25.975 145.81 26.13 146.34 26.44C146.875 26.75 147.297 27.1725 147.607 27.7075C147.917 28.2375 148.072 28.835 148.072 29.5V33.7C148.072 34.365 147.917 34.965 147.607 35.5C147.297 36.03 146.875 36.45 146.34 36.76C145.81 37.07 145.212 37.225 144.547 37.225ZM144.547 36.16C144.992 36.16 145.397 36.0525 145.762 35.8375C146.127 35.6175 146.417 35.325 146.632 34.96C146.847 34.595 146.955 34.1925 146.955 33.7525V29.4475C146.955 29.0025 146.847 28.5975 146.632 28.2325C146.417 27.8675 146.127 27.5775 145.762 27.3625C145.397 27.1425 144.992 27.0325 144.547 27.0325C144.102 27.0325 143.697 27.1425 143.332 27.3625C142.967 27.5775 142.677 27.8675 142.462 28.2325C142.247 28.5975 142.14 29.0025 142.14 29.4475V33.7525C142.14 34.1925 142.247 34.595 142.462 34.96C142.677 35.325 142.967 35.6175 143.332 35.8375C143.697 36.0525 144.102 36.16 144.547 36.16ZM157.463 37V27.43L155.431 28.6525V27.415L157.463 26.2H158.581V37H157.463ZM162.325 36.9925L162.333 35.9875L167.215 31.5775C167.635 31.1975 167.913 30.8375 168.048 30.4975C168.188 30.1525 168.258 29.7925 168.258 29.4175C168.258 28.9725 168.153 28.57 167.943 28.21C167.733 27.85 167.45 27.565 167.095 27.355C166.74 27.14 166.343 27.0325 165.903 27.0325C165.443 27.0325 165.033 27.1425 164.673 27.3625C164.313 27.5825 164.028 27.8725 163.818 28.2325C163.613 28.5925 163.513 28.985 163.518 29.41H162.393C162.393 28.755 162.548 28.1675 162.858 27.6475C163.168 27.1275 163.588 26.72 164.118 26.425C164.648 26.125 165.248 25.975 165.918 25.975C166.573 25.975 167.16 26.13 167.68 26.44C168.205 26.745 168.618 27.16 168.918 27.685C169.223 28.205 169.375 28.785 169.375 29.425C169.375 29.875 169.32 30.2725 169.21 30.6175C169.105 30.9575 168.938 31.275 168.708 31.57C168.483 31.86 168.195 32.16 167.845 32.47L163.51 36.385L163.338 35.935H169.375V36.9925H162.325Z" fill="#141414"/>
<defs>
<clipPath id="clip0_1_416">
<rect width="30" height="6" fill="white" transform="translate(0 9)"/>
</clipPath>
</defs>
</svg>
