<svg width="23" height="24" viewBox="0 0 23 24" fill="none" xmlns="http://www.w3.org/2000/svg">
<path d="M14.05 5.5C15.0267 5.69057 15.9244 6.16826 16.6281 6.87194C17.3317 7.57561 17.8094 8.47326 18 9.45L14.05 5.5ZM14.05 1.5C16.0793 1.72544 17.9716 2.63417 19.4162 4.07701C20.8609 5.51984 21.772 7.41101 22 9.44L14.05 1.5ZM21 17.42V20.42C21.0011 20.6985 20.9441 20.9742 20.8325 21.2293C20.7209 21.4845 20.5573 21.7136 20.3521 21.9019C20.1469 22.0901 19.9046 22.2335 19.6407 22.3227C19.3769 22.4119 19.0974 22.4451 18.82 22.42C15.7428 22.0856 12.787 21.0341 10.19 19.35C7.77382 17.8147 5.72533 15.7662 4.18999 13.35C2.49997 10.7412 1.44824 7.77099 1.11999 4.68C1.095 4.40347 1.12787 4.12476 1.21649 3.86162C1.30512 3.59849 1.44757 3.35669 1.63476 3.15162C1.82196 2.94655 2.0498 2.78271 2.30379 2.67052C2.55777 2.55833 2.83233 2.50026 3.10999 2.5H6.11C6.5953 2.49522 7.06579 2.66708 7.43376 2.98353C7.80173 3.29999 8.04207 3.73945 8.10999 4.22C8.23662 5.18007 8.47145 6.12273 8.81 7.03C8.94454 7.38792 8.97366 7.77691 8.8939 8.15088C8.81415 8.52485 8.62886 8.86811 8.35999 9.14L7.09 10.41C8.51355 12.9135 10.5864 14.9864 13.09 16.41L14.36 15.14C14.6319 14.8711 14.9751 14.6858 15.3491 14.6061C15.7231 14.5263 16.1121 14.5555 16.47 14.69C17.3773 15.0286 18.3199 15.2634 19.28 15.39C19.7658 15.4585 20.2094 15.7032 20.5265 16.0775C20.8437 16.4518 21.0122 16.9296 21 17.42Z" stroke="#7A9CA5" stroke-width="2" stroke-linecap="round" stroke-linejoin="round"/>
</svg>
